<svg width="56" height="56" viewBox="0 0 56 56" fill="none" xmlns="http://www.w3.org/2000/svg">
<circle cx="25.4545" cy="25.4545" r="25.4545" transform="matrix(0 -1 -1 0 52.6055 52.606)" fill="#412234"/>
<path d="M31.4292 36.0961C30.7458 36.7795 30.7458 37.8875 31.4292 38.5709C32.1126 39.2544 33.2207 39.2544 33.9041 38.5709L43.2374 29.2376C43.9209 28.5542 43.9209 27.4461 43.2374 26.7627L33.9041 17.4294C33.2207 16.746 32.1126 16.746 31.4292 17.4294C30.7458 18.1128 30.7458 19.2208 31.4292 19.9043L37.7751 26.2502L15.1667 26.2502C14.2002 26.2502 13.4167 27.0337 13.4167 28.0002C13.4167 28.9667 14.2002 29.7502 15.1667 29.7502L37.7751 29.7502L31.4292 36.0961Z" fill="white"/>
</svg>
