<svg width="56" height="56" viewBox="0 0 56 56" fill="none" xmlns="http://www.w3.org/2000/svg">
<circle cx="28.8491" cy="27.1514" r="25.4545" transform="rotate(-90 28.8491 27.1514)" fill="#412234"/>
<path d="M24.5708 36.0958C25.2542 36.7792 25.2542 37.8873 24.5708 38.5707C23.8874 39.2541 22.7793 39.2541 22.0959 38.5707L12.7626 29.2374C12.0791 28.5539 12.0791 27.4459 12.7626 26.7625L22.0959 17.4291C22.7793 16.7457 23.8874 16.7457 24.5708 17.4291C25.2542 18.1126 25.2542 19.2206 24.5708 19.904L18.2249 26.2499L40.8333 26.2499C41.7998 26.2499 42.5833 27.0334 42.5833 27.9999C42.5833 28.9664 41.7998 29.7499 40.8333 29.7499L18.2249 29.7499L24.5708 36.0958Z" fill="white"/>
</svg>
