<svg width="24" height="25" viewBox="0 0 24 25" fill="none" xmlns="http://www.w3.org/2000/svg">
<path d="M12.0009 14.2432C9.87086 14.2432 8.13086 12.5132 8.13086 10.3732C8.13086 8.23318 9.87086 6.51318 12.0009 6.51318C14.1309 6.51318 15.8709 8.24318 15.8709 10.3832C15.8709 12.5232 14.1309 14.2432 12.0009 14.2432ZM12.0009 8.01318C10.7009 8.01318 9.63086 9.07318 9.63086 10.3832C9.63086 11.6932 10.6909 12.7532 12.0009 12.7532C13.3109 12.7532 14.3709 11.6932 14.3709 10.3832C14.3709 9.07318 13.3009 8.01318 12.0009 8.01318Z" fill="#412234"/>
<path d="M11.9997 22.8332C10.5197 22.8332 9.02969 22.2732 7.86969 21.1632C4.91969 18.3232 1.65969 13.7932 2.88969 8.40324C3.99969 3.51324 8.26969 1.32324 11.9997 1.32324C11.9997 1.32324 11.9997 1.32324 12.0097 1.32324C15.7397 1.32324 20.0097 3.51324 21.1197 8.41324C22.3397 13.8032 19.0797 18.3232 16.1297 21.1632C14.9697 22.2732 13.4797 22.8332 11.9997 22.8332ZM11.9997 2.82324C9.08969 2.82324 5.34969 4.37324 4.35969 8.73324C3.27969 13.4432 6.23969 17.5032 8.91969 20.0732C10.6497 21.7432 13.3597 21.7432 15.0897 20.0732C17.7597 17.5032 20.7197 13.4432 19.6597 8.73324C18.6597 4.37324 14.9097 2.82324 11.9997 2.82324Z" fill="#412234"/>
</svg>
