<svg width="24" height="25" viewBox="0 0 24 25" fill="none" xmlns="http://www.w3.org/2000/svg">
<path d="M17 20.8232H7C2.59 20.8232 1.25 19.4832 1.25 15.0732V14.5732C1.25 14.1632 1.59 13.8232 2 13.8232C2.96 13.8232 3.75 13.0332 3.75 12.0732C3.75 11.1132 2.96 10.3232 2 10.3232C1.59 10.3232 1.25 9.98324 1.25 9.57324V9.07324C1.25 4.66324 2.59 3.32324 7 3.32324H17C21.41 3.32324 22.75 4.66324 22.75 9.07324V10.0732C22.75 10.4832 22.41 10.8232 22 10.8232C21.04 10.8232 20.25 11.6132 20.25 12.5732C20.25 13.5332 21.04 14.3232 22 14.3232C22.41 14.3232 22.75 14.6632 22.75 15.0732C22.75 19.4832 21.41 20.8232 17 20.8232ZM2.75 15.2332C2.77 18.6732 3.48 19.3232 7 19.3232H17C20.34 19.3232 21.15 18.7332 21.24 15.7332C19.81 15.3932 18.75 14.1032 18.75 12.5732C18.75 11.0432 19.82 9.75324 21.25 9.41324V9.07324C21.25 5.50324 20.58 4.82324 17 4.82324H7C3.48 4.82324 2.77 5.47324 2.75 8.91324C4.18 9.25324 5.25 10.5432 5.25 12.0732C5.25 13.6032 4.18 14.8932 2.75 15.2332Z" fill="#412234"/>
<path d="M10 7.32324C9.59 7.32324 9.25 6.98324 9.25 6.57324V4.07324C9.25 3.66324 9.59 3.32324 10 3.32324C10.41 3.32324 10.75 3.66324 10.75 4.07324V6.57324C10.75 6.98324 10.41 7.32324 10 7.32324Z" fill="#412234"/>
<path d="M10 14.6532C9.59 14.6532 9.25 14.3132 9.25 13.9032V10.2332C9.25 9.82315 9.59 9.48315 10 9.48315C10.41 9.48315 10.75 9.82315 10.75 10.2332V13.9032C10.75 14.3232 10.41 14.6532 10 14.6532Z" fill="#412234"/>
<path d="M10 20.8232C9.59 20.8232 9.25 20.4832 9.25 20.0732V17.5732C9.25 17.1632 9.59 16.8232 10 16.8232C10.41 16.8232 10.75 17.1632 10.75 17.5732V20.0732C10.75 20.4832 10.41 20.8232 10 20.8232Z" fill="#412234"/>
</svg>
