<svg width="24" height="25" viewBox="0 0 24 25" fill="none" xmlns="http://www.w3.org/2000/svg">
<path d="M12 22.8232C6.07 22.8232 1.25 18.0032 1.25 12.0732C1.25 6.14324 6.07 1.32324 12 1.32324C17.93 1.32324 22.75 6.14324 22.75 12.0732C22.75 18.0032 17.93 22.8232 12 22.8232ZM12 2.82324C6.9 2.82324 2.75 6.97324 2.75 12.0732C2.75 17.1732 6.9 21.3232 12 21.3232C17.1 21.3232 21.25 17.1732 21.25 12.0732C21.25 6.97324 17.1 2.82324 12 2.82324Z" fill="#412234"/>
<path d="M15.7106 16.0033C15.5806 16.0033 15.4506 15.9733 15.3306 15.8933L12.2306 14.0433C11.4606 13.5833 10.8906 12.5733 10.8906 11.6833V7.58325C10.8906 7.17325 11.2306 6.83325 11.6406 6.83325C12.0506 6.83325 12.3906 7.17325 12.3906 7.58325V11.6833C12.3906 12.0433 12.6906 12.5733 13.0006 12.7533L16.1006 14.6033C16.4606 14.8133 16.5706 15.2733 16.3606 15.6333C16.2106 15.8733 15.9606 16.0033 15.7106 16.0033Z" fill="#412234"/>
</svg>
